<svg width="65" height="65" viewBox="0 0 65 65" fill="none" xmlns="http://www.w3.org/2000/svg">
<path d="M13.3575 9.28613C11.0487 9.28613 8.83441 10.2033 7.20184 11.8359C5.56927 13.4684 4.6521 15.6827 4.6521 17.9915V44.6879C4.6521 46.9967 5.56927 49.211 7.20184 50.8435C8.83441 52.4761 11.0487 53.3933 13.3575 53.3933H51.6517C53.9605 53.3933 56.1748 52.4761 57.8074 50.8435C59.4399 49.211 60.3571 46.9967 60.3571 44.6879V17.9915C60.3571 15.6827 59.4399 13.4684 57.8074 11.8359C56.1748 10.2033 53.9605 9.28613 51.6517 9.28613H13.3575ZM8.13424 17.9915C8.13424 16.6062 8.68454 15.2777 9.66409 14.2981C10.6436 13.3186 11.9722 12.7683 13.3575 12.7683H51.6517C53.037 12.7683 54.3656 13.3186 55.3451 14.2981C56.3247 15.2777 56.875 16.6062 56.875 17.9915V19.7999L32.5 32.2845L8.13424 19.8045V17.9915ZM8.13424 23.7185L31.706 35.7899C31.9517 35.9158 32.2239 35.9814 32.5 35.9814C32.776 35.9814 33.0482 35.9158 33.2939 35.7899L56.875 23.7138V44.6902C56.875 46.0755 56.3247 47.4041 55.3451 48.3836C54.3656 49.3631 53.037 49.9134 51.6517 49.9134H13.3598C11.9745 49.9134 10.646 49.3631 9.66641 48.3836C8.68686 47.4041 8.13656 46.0755 8.13656 44.6902L8.13424 23.7185Z" fill="#C62E3E"/>
</svg>
