<svg width="30" height="30" viewBox="0 0 30 30" fill="none" xmlns="http://www.w3.org/2000/svg">
<path d="M27.1876 25.8622L20.1076 18.7822C21.8089 16.7397 22.6574 14.1199 22.4763 11.4677C22.2953 8.81561 21.0988 6.33538 19.1356 4.54299C17.1725 2.75061 14.5939 1.78408 11.9363 1.84447C9.27868 1.90485 6.74666 2.9875 4.86696 4.8672C2.98726 6.7469 1.90461 9.27892 1.84422 11.9365C1.78384 14.5941 2.75037 17.1727 4.54275 19.1359C6.33513 21.099 8.81536 22.2955 11.4675 22.4766C14.1196 22.6576 16.7394 21.8092 18.782 20.1078L25.862 27.1878L27.1876 25.8622ZM3.75008 12.1878C3.75008 10.519 4.24493 8.88774 5.17205 7.5002C6.09918 6.11266 7.41694 5.0312 8.95869 4.39259C10.5004 3.75397 12.1969 3.58688 13.8337 3.91245C15.4704 4.23801 16.9738 5.0416 18.1538 6.22161C19.3338 7.40161 20.1374 8.90503 20.463 10.5417C20.7885 12.1785 20.6214 13.875 19.9828 15.4167C19.3442 16.9585 18.2627 18.2762 16.8752 19.2033C15.4877 20.1305 13.8564 20.6253 12.1876 20.6253C9.95058 20.6228 7.80591 19.7331 6.22411 18.1513C4.6423 16.5695 3.75256 14.4248 3.75008 12.1878Z" fill="#CFCFCF"/>
</svg>
