<svg width="100" height="100" viewBox="0 0 100 100" fill="none" xmlns="http://www.w3.org/2000/svg">
<path d="M88.2422 22.7769L50.7422 10.2769C50.2605 10.116 49.7395 10.116 49.2578 10.2769L11.7578 22.7769C11.2915 22.9326 10.8859 23.231 10.5985 23.6298C10.3111 24.0287 10.1564 24.5079 10.1562 24.9995V56.2495C10.1562 56.8711 10.4032 57.4673 10.8427 57.9068C11.2823 58.3463 11.8784 58.5933 12.5 58.5933C13.1216 58.5933 13.7177 58.3463 14.1573 57.9068C14.5968 57.4673 14.8437 56.8711 14.8438 56.2495V28.2495L29.9531 33.2886C28.0478 36.1044 26.7566 39.2899 26.1637 42.6377C25.5708 45.9855 25.6894 49.4207 26.5119 52.7196C27.3343 56.0186 28.8421 59.1074 30.9372 61.7851C33.0323 64.4628 35.6677 66.6694 38.6719 68.2612C31.1523 70.812 24.6094 75.9136 19.9219 83.105C19.6524 83.6211 19.5847 84.219 19.7319 84.7822C19.879 85.3455 20.2306 85.8338 20.718 86.1521C21.2055 86.4705 21.794 86.5959 22.3689 86.5042C22.9438 86.4124 23.464 86.11 23.8281 85.6558C29.8711 76.4019 39.4062 71.0933 50 71.0933C60.5938 71.0933 70.1289 76.4019 76.1719 85.6558C76.5338 86.1196 77.057 86.4304 77.6375 86.5264C78.218 86.6223 78.8133 86.4964 79.3053 86.1737C79.7972 85.851 80.1498 85.355 80.293 84.7843C80.4362 84.2137 80.3595 83.61 80.0781 83.0933C75.3906 75.9136 68.8555 70.812 61.3281 68.2495C64.3307 66.6559 66.9643 64.448 69.0574 61.7696C71.1505 59.0911 72.6563 56.002 73.4768 52.7032C74.2974 49.4044 74.4143 45.9698 73.82 42.6228C73.2257 39.2759 71.9334 36.0915 70.0273 33.2769L88.2422 27.2222C88.7083 27.0662 89.1135 26.7677 89.4007 26.3689C89.6878 25.97 89.8423 25.491 89.8423 24.9995C89.8423 24.5081 89.6878 24.029 89.4007 23.6302C89.1135 23.2313 88.7083 22.9328 88.2422 22.7769ZM69.5312 46.8745C69.5326 49.9867 68.7902 53.0542 67.366 55.8214C65.9417 58.5886 63.8768 60.9754 61.3432 62.7829C58.8096 64.5904 55.8808 65.7663 52.8008 66.2126C49.7207 66.6588 46.5786 66.3626 43.6362 65.3486C40.6938 64.3345 38.0363 62.632 35.8852 60.3829C33.7341 58.1337 32.1516 55.4031 31.2695 52.4185C30.3875 49.4339 30.2315 46.2817 30.8145 43.2245C31.3975 40.1674 32.7026 37.2938 34.6211 34.8433L49.2578 39.7222C49.7395 39.883 50.2605 39.883 50.7422 39.7222L65.3789 34.8433C68.0735 38.2743 69.536 42.5119 69.5312 46.8745ZM50 35.0308L19.9219 24.9995L50 14.9683L80.0781 24.9995L50 35.0308Z" fill="#C62E3E"/>
</svg>
